<?xml version="1.0" encoding="utf-8"?>
<!-- Generator: Adobe Illustrator 19.1.0, SVG Export Plug-In . SVG Version: 6.00 Build 0)  -->
<svg version="1.1" id="图层_1" xmlns="http://www.w3.org/2000/svg" xmlns:xlink="http://www.w3.org/1999/xlink" x="0px" y="0px"
	 viewBox="0 0 300 300" style="enable-background:new 0 0 300 300;" xml:space="preserve">
<style type="text/css">
	.st0{fill:#E2E2E7;}
	.st1{opacity:0.45;}
</style>
<g>
	<rect class="st0" width="300" height="300"/>
	<g class="st1">
		<path d="M149.8,113.5H169l-19.3-19.3V113.5 M125.3,89h28l21,21v42c0,3.9-3.1,7-7,7h-42c-3.9,0-7-3.1-7-7V96
			C118.3,92.1,121.4,89,125.3,89 M125.3,152h31.5h10.5v-28l-14,14l-7-7L125.3,152 M132.3,113.5c-3.9,0-7,3.1-7,7s3.1,7,7,7
			s7-3.1,7-7S136.1,113.5,132.3,113.5z"/>
		<g>
			<path d="M106.3,209.9l-0.1-0.9c1.8-0.1,3.4-0.1,4.9-0.2v-1.8H107v-1c0.5-0.6,1-1.4,1.5-2.4h-2.1v-0.9h2.5
				c0.4-0.7,0.7-1.4,1.1-2.2l1.1,0.3c-0.2,0.3-0.4,0.9-0.8,1.6c-0.1,0.1-0.1,0.2-0.2,0.3h5.6v0.9h-6c-0.3,0.5-0.7,1.2-1.2,2.1
				c-0.1,0.2-0.2,0.3-0.2,0.4h3v-1.5h1v1.5h3.1v0.9h-3.1v1.7c0.4,0,1-0.1,1.8-0.1c0.6,0,1.1-0.1,1.4-0.1c0,0.3,0,0.5,0,0.9
				c-1.1,0.1-2.1,0.1-3.2,0.2v1.5h-1v-1.5c-0.7,0-1.8,0.1-3.2,0.2C107.2,209.8,106.6,209.9,106.3,209.9z M109.2,211.9h13.2v8.1h-1.1
				v-1h-11.1v1h-1V211.9z M110.2,212.8v2.1h11.1v-2.1H110.2z M110.2,215.8v2.2h11.1v-2.2H110.2z M115,210.5c0.8-1,1.4-1.8,1.6-2.6
				c0.3-0.8,0.4-2.1,0.4-3.8v-1.8c2.6-0.1,5.1-0.3,7.5-0.6l0.3,1c-2.5,0.3-4.7,0.4-6.8,0.5v0.9c0,0.7,0,1.4-0.1,1.9h7.3v0.9h-2.8
				v4.1h-1v-4.1h-3.5c-0.1,1.5-0.8,3-1.9,4.3C115.5,210.8,115.2,210.6,115,210.5z"/>
			<path d="M128.3,202.3h15.7v1h-7.5c-0.1,2.1-0.3,3.8-0.5,5.2h9.6v1.1h-7.8v6.9c0,0.7,0.1,1.1,0.4,1.3c0.3,0.3,0.7,0.4,1.5,0.4h2.8
				c1.2,0.1,1.9-0.5,1.9-1.6c0.1-0.7,0.2-1.5,0.2-2.4c0.4,0.2,0.8,0.3,1.1,0.4c-0.1,1.1-0.1,2-0.2,2.6c-0.2,1.4-1.1,2.1-2.9,2.1
				h-3.2c-1.8,0.1-2.7-0.8-2.6-2.6v-7h-0.9c-0.8,4.4-3.6,7.8-8.3,10.4c-0.1-0.1-0.3-0.3-0.5-0.5c-0.2-0.2-0.3-0.3-0.3-0.4
				c4.5-2.4,7.2-5.5,8-9.5h-7.8v-1.1h8.1c0.3-1.4,0.5-3.1,0.5-5.2h-7.1V202.3z"/>
			<path d="M147.8,201.6h17.1v18.3h-1v-1h-15v1h-1V201.6z M148.9,202.6V218h15v-15.4H148.9z M150.8,208.4c-0.3-0.3-0.5-0.5-0.7-0.7
				c1.6-1.2,3.1-2.7,4.2-4.4l0.9,0.4c-0.2,0.3-0.5,0.7-1,1.2h7.2v0.9c-1.1,1.3-2.3,2.3-3.7,3.2c1.5,0.7,3.3,1.2,5.3,1.4
				c-0.2,0.3-0.3,0.7-0.4,1c-2.4-0.5-4.3-1.1-5.8-1.9c-1.7,0.9-3.9,1.7-6.6,2.2c0,0,0-0.1-0.1-0.2c-0.1-0.3-0.3-0.6-0.4-0.8
				c2.3-0.3,4.3-0.9,6.1-1.8c-1.1-0.6-2.1-1.5-3-2.5C152.2,207.2,151.5,207.8,150.8,208.4z M151.5,215.1l0.3-0.9
				c2.9,0.4,5.9,0.9,9.1,1.5l-0.3,1C157.8,216.1,154.8,215.6,151.5,215.1z M160.3,205.8h-6.8l-0.1,0.1c0.9,1.1,2.1,2,3.4,2.7
				C158.2,207.8,159.3,206.9,160.3,205.8z M153.6,212.5l0.3-0.9c2.1,0.3,4,0.6,5.7,1l-0.3,0.9C157.4,213.1,155.5,212.8,153.6,212.5z
				"/>
			<path d="M179.7,200.9h1.1v5.8h5.4v1.1H172v1.5c0,0.9,0,1.7-0.1,2.4h9.8v8.3h-1.1v-7.2h-8.7c-0.2,2.7-1.2,5.1-3,7.1
				c-0.3-0.3-0.6-0.5-1-0.8c1.3-1.4,2.1-2.7,2.4-4c0.4-1.2,0.6-3.2,0.6-5.8v-8h1.1v5.4h7.7V200.9z"/>
		</g>
	</g>
</g>
</svg>
